<svg width="800" height="800" xmlns="http://www.w3.org/2000/svg" xmlns:xlink="http://www.w3.org/1999/xlink" xml:space="preserve" overflow="hidden"><defs><clipPath id="clip0"><rect x="240" y="1520" width="800" height="800"/></clipPath></defs><g clip-path="url(#clip0)" transform="translate(-240 -1520)"><path d="M956.379 1893.05 956.379 1953.68C956.013 1965.1 947.865 1974.78 936.674 1977.09L886.905 1985.68C885.322 1985.97 883.709 1986.05 882.105 1985.94 876.274 2008.53 867.284 2030.19 855.411 2050.27 856.648 2051.31 857.752 2052.5 858.695 2053.81L887.789 2095.07C894.109 2104.62 893.027 2117.26 885.179 2125.6L842.232 2168.55C833.891 2176.36 821.276 2177.42 811.747 2171.12L770.484 2142.06C769.154 2141.13 767.949 2140.03 766.905 2138.78 746.615 2150.75 724.724 2159.79 701.895 2165.6 702.326 2168.04 702.326 2170.53 701.895 2172.97L694.232 2217.31C691.605 2230.04 680.578 2239.31 667.579 2239.71L612.421 2239.71C599.422 2239.31 588.395 2230.04 585.768 2217.31L578.105 2172.97C577.668 2170.53 577.668 2168.04 578.105 2165.6 555.274 2159.79 533.385 2150.75 513.095 2138.78 512.047 2140.01 510.844 2141.1 509.516 2142.02L468.253 2171.12C458.704 2177.44 446.064 2176.35 437.726 2168.51L394.779 2125.56C386.988 2117.23 385.926 2104.64 392.211 2095.12L421.305 2053.85C422.23 2052.53 423.32 2051.33 424.547 2050.27 412.687 2030.19 403.715 2008.53 397.895 1985.94 396.291 1986.05 394.678 1985.97 393.095 1985.68L343.326 1977.09C332.128 1974.8 323.973 1965.11 323.621 1953.68L323.621 1893.05C323.973 1881.63 332.128 1871.94 343.326 1869.64L393.095 1861.05C394.679 1860.77 396.292 1860.7 397.895 1860.84 403.72 1838.25 412.693 1816.6 424.547 1796.51 423.323 1795.45 422.234 1794.25 421.305 1792.93L392.211 1751.66C385.92 1742.13 386.981 1729.53 394.779 1721.18L437.726 1678.23C446.07 1670.4 458.7 1669.32 468.253 1675.62L509.516 1704.72C510.846 1705.65 512.05 1706.75 513.095 1708 533.181 1696.13 554.839 1687.14 577.432 1681.31 577.29 1679.7 577.36 1678.09 577.642 1676.51L586.232 1626.74C588.528 1615.54 598.216 1607.38 609.642 1607.03L670.358 1607.03C681.784 1607.38 691.472 1615.54 693.768 1626.74L702.358 1676.51C702.632 1678.09 702.703 1679.7 702.568 1681.31 725.158 1687.14 746.817 1696.13 766.905 1708 767.949 1706.75 769.154 1705.65 770.484 1704.72L811.747 1675.62C821.288 1669.33 833.903 1670.41 842.232 1678.23L885.179 1721.18C893.006 1729.51 894.084 1742.12 887.789 1751.66L858.695 1792.93C857.752 1794.25 856.648 1795.45 855.411 1796.51 867.284 1816.59 876.274 1838.25 882.105 1860.84 883.709 1860.7 885.322 1860.77 886.905 1861.05L936.674 1869.64C947.865 1871.95 956.013 1881.63 956.379 1893.05ZM747.747 1923.37C747.722 1863.86 699.465 1815.64 639.958 1815.66 580.451 1815.69 532.229 1863.95 532.253 1923.45 532.276 1982.93 580.483 2031.13 639.958 2031.16 699.465 2031.18 747.722 1982.96 747.747 1923.45 747.747 1923.42 747.747 1923.4 747.747 1923.37Z" fill="#033B55"/></g></svg>