<svg width="800" height="800" xmlns="http://www.w3.org/2000/svg" xmlns:xlink="http://www.w3.org/1999/xlink" xml:space="preserve" overflow="hidden"><defs><clipPath id="clip0"><rect x="1003" y="1525" width="800" height="800"/></clipPath></defs><g clip-path="url(#clip0)" transform="translate(-1003 -1525)"><path d="M1514.12 1650 1291.85 1650C1201.39 1650.07 1128.07 1723.39 1128 1813.85L1128 2036.12C1128.06 2126.6 1201.38 2199.93 1291.85 2200L1514.12 2200C1604.59 2199.92 1677.91 2126.59 1677.98 2036.12L1677.98 1813.85C1677.93 1723.38 1604.6 1650.04 1514.12 1650ZM1622.68 2036.12C1622.66 2096.07 1574.07 2144.66 1514.12 2144.68L1291.85 2144.68C1231.91 2144.68 1183.32 2096.09 1183.32 2036.15 1183.32 2036.14 1183.32 2036.13 1183.32 2036.12L1183.32 1813.85C1183.31 1753.93 1231.88 1705.34 1291.8 1705.32 1291.82 1705.32 1291.83 1705.32 1291.85 1705.32L1514.12 1705.32C1574.05 1705.34 1622.64 1753.92 1622.65 1813.85L1622.68 2036.12Z" fill="#F79500"/><path d="M1403 1782.8C1324.55 1782.8 1260.8 1846.57 1260.8 1925 1260.8 2003.43 1324.57 2067.2 1403 2067.2 1481.43 2067.2 1545.2 2003.43 1545.2 1925 1545.2 1846.57 1481.45 1782.8 1403 1782.8ZM1403 2011.88C1355.02 2011.88 1316.12 1972.99 1316.11 1925.01 1316.1 1877.03 1354.99 1838.13 1402.97 1838.12 1450.95 1838.12 1489.85 1877.01 1489.86 1924.99 1489.87 1972.97 1450.98 2011.87 1403 2011.88ZM1545.5 1749.78C1564.32 1749.79 1579.56 1765.06 1579.55 1783.88 1579.53 1802.69 1564.27 1817.94 1545.45 1817.93 1526.65 1817.91 1511.42 1802.68 1511.4 1783.88 1511.4 1765.07 1524.15 1749.78 1545.5 1749.78Z" fill="#F79500"/></g></svg>