<svg width="326" height="377" xmlns="http://www.w3.org/2000/svg" xmlns:xlink="http://www.w3.org/1999/xlink" xml:space="preserve" overflow="hidden"><defs><clipPath id="clip0"><rect x="2464" y="1396" width="326" height="377"/></clipPath></defs><g clip-path="url(#clip0)" transform="translate(-2464 -1396)"><path d="M2626.5 1396 2668 1485.67 2643.78 1538 2626.5 1534.52 2609.22 1538 2585 1485.67Z" fill="#F79500" fill-rule="evenodd"/><path d="M2789.43 1490.53 2732.35 1571.29 2674.8 1576.58 2672.43 1564.85C2669.93 1558.93 2666.3 1553.6 2661.82 1549.12L2657.84 1546.43 2690.95 1499.58Z" fill="#F79500" fill-rule="evenodd"/><path d="M142.446 24.2624 89.8135 0 0 41.4023 89.8138 82.8046 142.529 58.5039 140.213 53.7593C138.574 47.641 138.102 41.2103 138.893 34.829Z" fill="#F79500" fill-rule="evenodd" transform="matrix(-0.866025 -0.5 -0.5 0.866025 2810.13 1642.67)"/><path d="M2643.45 1630 2668 1683.16 2626.5 1773 2585 1683.16 2609.55 1630 2626.5 1633.41Z" fill="#F79500" fill-rule="evenodd"/><path d="M142.298 41.4023 52.4839 0 0.385433 24.0163 2.49413 28.338C4.1333 34.4562 4.60607 40.8869 3.81391 47.2682L0 58.6107 52.4842 82.8046Z" fill="#F79500" fill-rule="evenodd" transform="matrix(-0.866025 -0.5 -0.5 0.866025 2608.15 1525.83)"/><path d="M2579.34 1592.43 2581.21 1601.69C2583.72 1607.61 2587.34 1612.95 2591.82 1617.43L2597.01 1620.93 2562.7 1669.48 2464.22 1678.53 2521.29 1597.77Z" fill="#F79500" fill-rule="evenodd"/></g></svg>